<svg id="Layer_1" data-name="Layer 1" xmlns="http://www.w3.org/2000/svg" xmlns:xlink="http://www.w3.org/1999/xlink" viewBox="0 0 390 40"><defs><style>.cls-1,.cls-5,.cls-6{fill:none;}.cls-2{clip-path:url(#clip-path);}.cls-3{clip-path:url(#clip-path-2);}.cls-4{opacity:0.42;}.cls-5,.cls-6{stroke:#9dbfff;stroke-miterlimit:10;}.cls-5{stroke-width:2px;}.cls-6{stroke-width:0.5px;}</style><clipPath id="clip-path"><rect class="cls-1" width="390" height="40"/></clipPath><clipPath id="clip-path-2"><rect class="cls-1" x="-214.79" width="935.1" height="623.4"/></clipPath></defs><title>Artboard 33</title><g class="cls-2"><g class="cls-3"><g class="cls-4"><path class="cls-5" d="M234.49,230.42c17.3-16.93,25-43.7,23.09-69C254.74,124,232.81,94.21,209.9,66.18,205.66,61,201,55.69,194.63,53.57c-9.31-3.1-19.24,1.44-28.16,5.52-5.81,2.67-12.12,5.22-18.61,5.34-5.51.1-9.37-2.07-14.85-.25-9.66,3.2-15.6,12.39-23.28,18.49-12.12,9.65-32.13,12-45.27,3.14a28.87,28.87,0,0,1-2.79-2.16C50.51,73.84,45.48,56.37,31.5,49.91c-4-1.85-8.34-3.63-11.92-6.34S14.83,37.2,12.5,33.38c-5-8.25-15.3-12.67-23.77-9.13s-13.42,15.52-9.26,24.34c1.38,2.93,3.54,5.31,5.23,8,7.09,11.48.56,21.3,2.17,33.11s6.28,22.63,14.79,30.32C18.94,135.67,43.07,133.32,64,134.47c6.47.35,13.28,1.53,19.18,4.28,4.13,1.93,7.89,5,9.7,9.2,1.06,2.45,1.41,5.14,2.29,7.66s2.48,5,5,5.87c3.47,1.18,7.26-1.27,9.15-4.41s2.48-6.86,3.66-10.33,3.32-7,6.81-8.12a8.08,8.08,0,0,1,10.33,7.25c.38,6.86-1.52,12.93-3.73,19.36-1.8,5.24-4.14,11.57-2.86,17.12s4.75,10.61,8.58,14.85c4.84,5.35,10.51,10,14.77,15.81,3.12,4.26,5.41,9.07,8.41,13.41a56.82,56.82,0,0,0,18.3,16.28c5.55,3.08,14,4.09,20.32,4.2A57.41,57.41,0,0,0,234.49,230.42Z"/><path class="cls-6" d="M228.36,99.2c-3.11-4.25-6.75-7.23-9.61-11.7A63.8,63.8,0,0,0,207,73.4c-6.88-6-16-9.3-25-10.49-9.77-1.3-20.45,4.89-29.91,6.7-6.56,1.25-13.44,1.35-19.6,3.93C123.88,77.18,117.48,84.9,110.63,91c-7.56,6.68-17.94,12.1-28.2,12.38-6.89.2-13.45-3.38-18.34-8.23C54.28,85.38,49.43,71.43,39.25,62c-3.65-3.37-7.44-5.57-12-6.2s-7.65-1.6-10.8-5.61c-2.84-3.6-4.66-8-7.07-11.95s-5.71-7.65-10-8.61a10.09,10.09,0,0,0-9.12,2.66c-4,3.89-4.72,11.6-3.08,16.94,1.22,4,3.47,7.37,4.58,11.41a44.85,44.85,0,0,1,1,14.89c-.54,7.87-1.9,15.9-.12,23.55,1.91,8.22,7.33,15.07,13.78,19.79,5.33,3.9,10.5,6.6,16.79,7.59q11.12,1.75,22.27,3.23c9.33,1.24,18.8,1,28.1,2.5,9.75,1.55,17.88,6.08,28.15,5.18,6.29-.55,12.51-2.48,18.81-2,8.28.66,15.1,6.68,13.75,15.33-1.26,8.14-8.44,15.91-6.11,24.5,1.44,5.28,6,9,9.94,12.78a87.36,87.36,0,0,1,8.94,10.11,148.62,148.62,0,0,1,12.62,20.22c5.72,10.74,10.12,21,23.07,24.52,10,2.69,21,.36,30.77-2.91a53.65,53.65,0,0,0,18.27-10.59,54.44,54.44,0,0,0,10.9-13.12c6.91-11.67,10.66-25.43,11.43-39.26a95.27,95.27,0,0,0-.13-12.53C252.24,140.53,242.09,118,228.36,99.2Z"/><path class="cls-6" d="M216.56,64.45c-.8-1.15-1.63-2.27-2.51-3.36-7.57-9.3-18.79-14.5-30.8-12a52.69,52.69,0,0,0-16.62,7.18c-4.83,3-9.61,6-15.49,6.48-4.75.38-9.5-.92-14.27-.83a24.88,24.88,0,0,0-11.19,3c-5.2,2.78-8,6.66-11.94,10.79-5,5.26-9.92,9.25-16.91,11.78-6.74,2.45-14.32,3.31-21.23,1A38.53,38.53,0,0,1,55.31,72.24c-5.94-9.32-11.22-18-20.81-24-3.09-1.93-6.26-3.47-9.22-5.62-4-2.9-6.61-7.16-9.68-10.94A36,36,0,0,0,5,23c-8-4.37-17.77-4.1-24.23,2.78-5.9,6.28-7,13.91-3.83,21.84,1.75,4.39,4.24,8.47,5.78,12.93,2.86,8.3.25,18.63.39,27.3.26,15.5,7.68,30.2,18.44,41.26,6.18,6.35,14,11.11,22.86,12.53,8.13,1.31,16.34-.81,24.47-2.11,11.44-1.84,30.29-2.44,37.36,8.87,2.42,3.86,3.76,8.34,6.29,12.13s6.89,7,11.36,6.1c4.24-.82,7-4.88,8.66-8.87s2.71-8.36,5.56-11.58,6.88-2.55,7.84,1.61A27.12,27.12,0,0,1,124.51,163c-1.85,5-4.39,9.86-4.64,15.17-.43,8.95,5.8,17.23,11.72,23.3,5,5.11,10.56,9.68,15,15.26,4.57,5.75,7.83,12.43,12.54,18.06a51.37,51.37,0,0,0,18.52,13.81A50.78,50.78,0,0,0,197.77,253a44.85,44.85,0,0,0,8.65-.8c21.87-4.2,39.9-23.32,47.8-46a135.14,135.14,0,0,0,6.94-50.64c-.57-12.32-2.82-24.93-8.29-36.08-2.74-5.6-6.79-9.69-10.22-14.79-4-6-7.56-12.72-12.36-18-3.18-3.5-5.6-8-7.79-12.15A98.51,98.51,0,0,0,216.56,64.45Z"/><path class="cls-5" d="M334.06,303.17a42.07,42.07,0,0,0,6-10.75c1.58-4.44,1.8-9.88,2.36-14.54,1.15-9.4,1.78-18.87,3.23-28.25A96.14,96.14,0,0,1,360.7,211.4a46,46,0,0,1,3.6-4.78c6.9-8.07,16.05-14.08,22.69-22.42a50.4,50.4,0,0,0,10.27-37.4c-.57-4.33-.16-8.37-.3-12.76-.25-7.7,2.14-18.71,11.41-14.64,4.76,2.08,6.35,8.46,7.14,14s1.87,11.89,6.32,14.68c4.68,2.94,10.51.33,15.42-2.11,11.2-5.58,19.43,1.23,30.21,5.26,11.11,4.17,23.33,7.85,34.81,3.09,10.17-4.22,17.58-14.63,20.52-26.1,6-23.39-4.34-52.3-18.41-70-7.14-9-20.45-17.61-31.85-16.64a39.83,39.83,0,0,0-22.07,9.2c-6.24,5.26-11,12.33-16.9,18-5.09,4.9-14.83,9-21.85,9.74-5,.54-10.74-1.44-13-6-1.57-3.14-1.71-7.52-4.89-9-3.53-1.65-7.3,1.86-11.18,2.22-5.66.53-9.68-5.82-10.06-11.49s1.38-11.39.53-17C370.33,18.79,342.24,15,328.56,21.53c-15.95,7.57-24.34,40.28-18.42,57.11,6.48,18.42,27.07,27.54,30,48,1,7.16-.81,13.92-1.47,20.95s.61,14.19.61,21.23a169.51,169.51,0,0,1-6.12,45c-2.9,10.48-6.82,20.67-9.21,31.28-1.94,8.64-5.22,17.38-5.44,26.27-.27,10.4,3.22,20.53,6.52,30.24.65,1.93,1.59,4.13,3.56,4.62C330.76,306.75,332.73,304.93,334.06,303.17Z"/><path class="cls-6" d="M315.91,266.06c-.07,1.11-.1,2.22-.1,3.35,0,11,3.18,21.66,6.39,32.06.78,2.54,1.8,5.35,4.21,6.46a6.33,6.33,0,0,0,6.1-.9,15.71,15.71,0,0,0,4.11-4.93,66.58,66.58,0,0,0,7.67-18.78c1.59-6.68,1.38-13.6,1.79-20.45a93.89,93.89,0,0,1,9.5-35.94c6.09-12.28,16.35-20.77,24.48-31.4,4.17-5.44,8.78-10.24,12.39-16.15A95,95,0,0,0,401.12,161c2.25-6.51,1.83-13.31,3.78-19.89.56-1.91,1.38-4.1,3.16-4.6,2-.57,3.93,1.53,4.54,3.72s.43,4.56,1,6.75c1.4,5.14,6.7,7.92,11.6,8.12s9.67-1.51,14.51-2.34c15.45-2.63,29.83,6,45,7.4,15.5,1.44,28.29-4.57,36-15.56a44.49,44.49,0,0,0,7.44-19.66c2.83-20.53-3.5-42.86-14.79-60A91.87,91.87,0,0,0,499,47.72c-3.8-3.48-9.72-9.25-15-10.1-12.47-2-27.05,5.27-36.36,13-9.81,8.12-16.54,22.25-30.34,24.38a20.51,20.51,0,0,1-12.08-1.74c-3.07-1.54-4.83-4.72-6.56-7.63-1.13-1.89-2.71-3.71-4.85-4.21-2.56-.59-5.17.82-7.8.71a9.11,9.11,0,0,1-6.3-3.46c-3.32-3.92-4.41-8.16-4.2-13.18.13-3.25.46-6.56-.21-9.75-1.07-5.08-4.61-9.37-8.82-12.42-8.88-6.42-22.31-10.14-33-6.3-14.23,5.09-23.69,20.82-27.33,34.93a53.87,53.87,0,0,0,.42,28.78,37.32,37.32,0,0,0,10.07,17.06A100.31,100.31,0,0,1,332.25,116c4.86,7.61,2.66,20.37,2.75,29.1.11,11.4,2.38,22.72,1.9,34.12a122.84,122.84,0,0,1-4.43,28.12c-1.47,5.22-2.38,10.31-4.36,15.35-2.18,5.56-4.28,11.16-6.1,16.86C319.25,248.22,316.48,257,315.91,266.06Z"/><path class="cls-6" d="M447.09,47.91c-8.47,8.55-17.19,22-30,24-4.36.68-10.77-.18-14-3.52-2.84-2.9-4-6.59-8.11-8.47-3.15-1.46-6.75-1.62-10-2.82-9-3.32-5.71-14.16-7.45-21.53-1.86-7.89-7.26-12.44-14-16.21C355.15,14.7,343,11.93,333.7,15a37.49,37.49,0,0,0-13,8c-13.34,12-19.4,27.17-19.14,45.07.19,12.94,3.55,23.82,13,32.78a47.18,47.18,0,0,1,5.56,5.92c3.4,4.57,5.15,11.4,6.92,16.76a150.33,150.33,0,0,1,3.6,82.31c-3.2,14.11-10.62,27-14.84,40.82a69.41,69.41,0,0,0-2.54,11.74c-.39,3.33-1.53,6.49-1.73,9.85a29.6,29.6,0,0,0,1.65,10.87c1.84,5.65,4.69,10.94,6.37,16.64.89,3,1.46,6.21,3,9,1.41,2.61,4.4,5.7,7.61,4.77s5.93-4.29,7.61-7.12c5.19-8.71,8.32-18.53,10.27-28.48,1.73-8.85,2.09-17.77,3.26-26.67.42-3.18,2.26-6.16,3.3-9.2a78.55,78.55,0,0,1,4.84-11.38c5.62-10.58,13.78-19.78,21.29-29.17s13.59-19.86,21.34-29.15a23.68,23.68,0,0,1,18.29-9.11c3.25-.12,6.49-1.09,9.73-1.49,6.25-.77,12.05-1.53,18.41-.85a175.62,175.62,0,0,1,19.66,3.76c13.52,3.05,30,5.61,43-.78,10.27-5,17.75-16.62,20.32-27.43,7.4-31.13-7.12-61.09-26.13-84.88C497,37.21,486.57,20.5,470.89,28,462.08,32.22,453.93,41,447.09,47.91Z"/><path class="cls-6" d="M442.34,70.78,441.27,72C435.22,78.5,427,88.87,418,90.82A20.12,20.12,0,0,1,399.4,85c-2.48-2.67-4.52-6.22-8.06-7.09-4.34-1.08-8.56,2.48-13,2.44-6.24-.06-10.24-7-10.68-13.22s1.31-12.51.36-18.68c-2.8-18.14-26.93-23.06-40.66-14.25-11.44,7.34-16.77,27-10.47,39,3.88,7.41,10.59,12.41,16,18.53,9,10.06,14.51,23.62,15.64,37.6,1.36,16.87-2.26,36.46-4.7,53.24a410.6,410.6,0,0,1-12.73,57.89c-.88,3-1.22,7.16,1.7,8.17,1.83.63,3.78-.61,5.13-2,5.81-6,6.59-15.06,9.11-23,6.7-21.16,26.47-35.5,36.47-55.32,5.27-10.45,7.6-22,9.06-33.57,1.16-9.15-.91-19.9,10.12-23.09,7.27-2.1,15.64,2.27,18.72,9.78,2.13,5.19,2.33,12,6.8,14.94,3.68,2.4,8.33.75,12.59.14,12.93-1.88,22.33,9.75,34,13.26a39.55,39.55,0,0,0,13.31,1.63c7.61-.42,15.05-3.26,20.24-9.47,6.86-8.22,9.43-19.89,9-31-.38-10.06-3.48-19-5.66-28.6-1.75-7.71-4-13.84-9.18-19.81C494.13,52.93,481.2,47.93,469.4,51,458.24,53.82,449.92,62.56,442.34,70.78Z"/><path class="cls-6" d="M361.54,68.12c-.1-.43-.2-.86-.28-1.29-1.76-9.29,1-23.85-10.09-28.64-10.23-4.43-23.41,1.85-28.61,11C314,64.17,325,85,341,89.46c6,1.68,18.68.53,22-6,1.3-2.54,1.16-5.59.53-8.38C363,72.74,362.12,70.46,361.54,68.12Z"/><path class="cls-5" d="M338-49c.48-8.88-2.09-17.15-6.42-24.82-2.17-3.85-5.19-6.09-7.83-9.54-4.72-6.18-5.51-12.43-5.25-20.06.22-6.29.37-13.11-3.31-18.2-2.39-3.29-7.05-5.47-10.59-3.47-5.18,2.92-6,13.81-6,19s1.92,10.48,2.93,15.73c3.1,16.08-3.44,28.56-11.09,42a133.45,133.45,0,0,1-30.83,36.58C246.48-.93,233.17,6.45,216.7,9.55a75.25,75.25,0,0,0-34.46,15.8c-3.12,2.59-6.2,8.28-11,6-2.58-1.22-4.08-4.08-4.42-6.91-.41-3.36,1.95-7.6,0-10.39-1.48-2.12-5.2-2.42-7.46-1.9-3.35.77-6.22,2.9-9.43,4.14-6.85,2.66-14.7,1.08-21.34-2.07S116.1,6.5,109.76,2.77C96.05-5.31,77.67-5.67,62.21-8.39,46.44-11.16,29-16.65,12.87-13.25,4.47-11.47-3.27-6.29,1.07,3,2,5.1,3.78,6.5,4.89,8.35c1.36,2.27,1.9,5,3.15,7.37,2.87,5.46,7.37,10,12.15,13.79,7,5.55,14.79,10,21.26,16.11,6,5.66,10.61,12.57,15.69,19.06S68,77.41,75.41,81c8.7,4.24,19.49,3.3,27.72-1.6s12.15-14.69,21.13-18.5,19.5-.09,28.71-3.11c9.67-3.16,15.94-13.1,25.61-16.29,11.2-3.7,23,2.62,33.09,8.71,8.33,5,19.29,9.52,26.52,16,5.69,5.11,8.39,12.47,15.87,16,3.39,1.57,7.11,1.68,10.68,2.45a20.68,20.68,0,0,0,10.08-.75,24.81,24.81,0,0,0,14.93-12.24c2.45-4.86,3.19-10.36,4.37-15.67,3.19-14.3,9.59-27.56,16.63-40.53,6.45-11.88,13.45-23.53,19-35.54C334-29.24,337.43-38.94,338-49Z"/><path class="cls-6" d="M69.26,54.38c4.26,4.42,8.52,8.93,13.57,12.11,5.85,3.68,13.5,5.26,19.74,2.29,5.37-2.56,8.79-7.93,13.55-11.48s10.33-5.07,15.77-7,11-4.5,14.43-9.14,3.92-11.93-.38-15.79c-2.66-2.4-6.42-3-9.92-3.78a64.5,64.5,0,0,1-16.8-6.38c-5-2.74-8.86-7.22-13.67-9.94-4-2.28-9.81-2.48-14.34-3.51L71.59-2.73C60.26-5.32,12.52-24,15.06,1.5c1,10.21,14.76,18,21.73,24l25.3,21.9C64.57,49.54,66.91,51.94,69.26,54.38Z"/><path class="cls-6" d="M46.13,27.14c5.56,4.7,11.66,9.64,18.93,10.11,8.71.56,16.34-5.41,23-11,2.75-2.33,5.72-5.07,5.91-8.67.16-3.06-1.86-5.9-4.42-7.58S84,7.54,81,6.83L50.81-.36C44-2,31.74-7.64,24.94-4.89,7.84,2,39.8,22.39,46.13,27.14Z"/><path class="cls-5" d="M41.48,11.06C48.56,5.77,36.2-1.51,30.88.49c-5,1.87-2.43,5.61.15,7.79C34,10.8,38.35,13.4,41.48,11.06Z"/><path class="cls-6" d="M258.37,2.48A91.8,91.8,0,0,0,275.58-13.9c9.48-11.73,21.29-21.53,28.13-35.22,1.78-3.55,3.59-7.57,7.24-9.12,3.41-1.44,7.57-.13,10.13,2.54a16.11,16.11,0,0,1,4,10.13c.63,8.57-3.09,16.85-7.24,24.38C308.25-3.84,300.92,14.62,293.52,33c-3,7.44-6.76,14.73-9.5,22.26-2.6,7.17-3.4,14.05-10.73,18.2a19.82,19.82,0,0,1-23.05-3c-4.29-4.24-6.43-10.31-10.77-14.49-3.78-3.65-8.88-5.53-13.83-7.25s-10.08-3.44-14.06-6.87c-14-12,1.19-21,12.61-23.59A93.18,93.18,0,0,0,258.37,2.48Z"/><path class="cls-5" d="M231.13,19.25l-.21.05c-4.66,1-9.4,3.37-11.46,7.66-4.06,8.47,8,15.48,14.4,18,7.33,2.88,11.2,9.37,16.15,15.12,4.37,5.08,10.85,9.61,17.32,7.89,4.09-1.09,7.2-4.52,9.09-8.3s2.76-8,3.91-12c6.29-22.21,21-41,29.8-62.36,1.58-3.85,2.79-8.77-.09-11.77-2.66-2.77-7.25-2.15-10.81-.72-11,4.44-18.76,14.23-26.36,23.34S256.58,14.5,245,17.23C240.48,18.31,235.72,18.29,231.13,19.25Z"/><path class="cls-6" d="M269.42,45.93c3-5.72,4.19-13.72,4.95-17.35.36-1.68.62-3.68-.6-4.89s-3.62-.8-5.42-.17l-17,5.93c-2.61.91-5.38,1.94-7,4.15-4.54,6.06,5.87,12.2,9.54,15.44a13.86,13.86,0,0,0,3.29,2.36C263.05,54.09,266.87,50.86,269.42,45.93Z"/><path class="cls-6" d="M320.45-114.17c1.06,8.65-1.15,17.93,3.73,25.68,3.09,4.92,7.4,9,10.78,13.68,8,11.2,5.21,24.72,2.57,37.22a100.42,100.42,0,0,1-9.41,26.07c-6.37,12.07-13,24-19.13,36.24-2.31,4.62-4,10-5.89,14.85-2.14,5.51-4.36,11.88-4.36,17.86-.35,4.53-.12,9.21-1.73,13.45a22,22,0,0,1-7.64,9.52,66,66,0,0,1-10.73,6.1c-4,2-9.18,3.93-13.7,3.59-5-.37-9.48-3-14-4.91-7.39-3.1-13.13-4-19-10.35-5-5.49-8.9-12-14.27-17.13a60.36,60.36,0,0,0-12.58-8.88,46.43,46.43,0,0,0-15-5.57,26.29,26.29,0,0,0-13.75,1.33c-5.22,2.08-8.62,7.14-13.22,10.21a31.27,31.27,0,0,1-11.2,5.1c-4.4.87-8.91.77-13.38.87-5.24.11-10.75.53-15.5,3-3.87,2-5.46,4.54-8,7.82a41.44,41.44,0,0,1-8.67,8.16,42.76,42.76,0,0,1-22.28,7.83c-9.88.48-18.72-6-24.32-13.75C57,70,54.69,65.79,51.93,62c-6-8.32-14.19-13.64-21.28-20.76C24.32,34.82,16.1,31,10.6,23.5A80.63,80.63,0,0,1,4.21,12.61C1.57,7.53-3.89.91-2.75-5c1-5,4.5-8.29,9.08-10.22,9.45-4,20.72-.31,30.42.66,16.32,1.65,32.64,3.23,48.93,5.18,16.66,2,29.22,15.79,44.67,21,6.15,2.07,13,2.77,19.12.73,4.71-1.56,9.2-4.71,14.14-4.15,11.39,1.31,4.74,17.47,11.65,18.4,2.64.35,7.69-6.25,10.48-7.68,3.95-2,8-3.82,12-5.67,8.85-4.09,19.12-6.2,28.57-9.46C238.9-.52,249.28-10,260-17.52A96.19,96.19,0,0,0,287.35-47.1a95.62,95.62,0,0,0,9.53-21.76c2.58-8.77,2.08-16,.49-25-1-5.67-3.87-11.63-2.7-17.3,1.48-7.17,5.82-19.27,15.38-17.39,4.42.87,7.74,4.76,9.21,9A25.46,25.46,0,0,1,320.45-114.17Z"/><path class="cls-6" d="M123-8.93C119-8,116.25-8.31,116.86-4c.45,3.15,5.15,7.05,7.49,8.84,6.18,4.72,14.45,6.92,22.08,5,4.34-1.07,8.33-3.24,12.61-4.55s9.2-1.67,13,.73c3.06,1.94,5,5.49,8.44,6.77s7,0,10.36-1.34L227.05-2.57c2.74-1.07,5.81-2.46,6.72-5.26,2.16-6.6-19.48-6.22-23.53-6.7-11.22-1.32-22.47-2.37-33.76-2.73-9.76-.31-16.9,0-26.65,2.24Z"/><path class="cls-6" d="M197.12,4.36l16.31-7.72a9.18,9.18,0,0,0,3.28-2.17,3.15,3.15,0,0,0,.43-3.67c-.82-1.19-2.51-1.32-4-1.34l-14.09-.13-15.16-.15a18.51,18.51,0,0,0-6.6.74c-7,2.6-4.34,7.51.23,11.09C184,6.09,189.68,7.88,197.12,4.36Z"/><path class="cls-5" d="M468.66,9.25c2.63-6.62,3.28-14.57,9.19-19,2.44-1.81,5.12-3.55,6.55-6.23,3-5.61,0-12.51-1.55-18.07-1.72-6.08-.94-12.1-4.05-17.93-2.29-4.29-6.14-6-8.84-9.69-1.2-1.67-2-3.58-3.15-5.31-1.94-3-4.84-3.7-7.47-5.8a81,81,0,0,1-8.67-7.33c-5.51-5.88-10.58-4.23-17.94-3.12a51.76,51.76,0,0,0-14.25,4.52c-7.23,3.3-14,7.68-21.33,10.63a60.53,60.53,0,0,1-35.33,2.87c-3.07-.68-6.25-1.6-9.29-.81-3.52.92-6.13,4-7.41,7.45-1.42,3.8-1.24,7.88-1.89,11.81-.72,4.29-1.57,8.56-2.19,12.87-1.21,8.46-2.09,17-3.25,25.43-.5,3.66-1,7.59.59,10.9,1.83,3.88,6,5.88,10.08,6.39s8.13-.16,12.2-.1c12.54.2,24.73,8,30.86,19.61,5.07,9.64,4.74,22,11.55,30.4a18,18,0,0,0,10,6.54c6.5,1.38,12.45-3.42,17.47-6.94,8.4-5.91,13.76-15.23,20-23.35,3.46-4.49,7.74-7.53,11.57-11.51C465.69,19.81,466.76,14.05,468.66,9.25Z"/><path class="cls-6" d="M484.07-42.7c-.91-5.63-1.43-10.64-5.64-14.89-2.11-2.12-4.4-3.65-6-6.22-1.48-2.36-2.47-4.93-4.75-6.68-2.5-1.92-5.4-3.22-8.06-4.9-5.55-3.53-7.77-10.61-14.75-11-7.52-.47-15.56-.27-22.65,2.55-7.59,3-14,8.56-21.72,11.43a80.11,80.11,0,0,1-25.8,4.94c-5.56.13-10.62-1-16.08-1.67-4.21-.56-10.25-1.58-13.8,1.48-1.75,1.52-2.14,4-2.43,6.32-1.59,12.83-2.94,25.76-5.33,38.45-1.38,7.37-3.71,13.76-3.39,21.45.14,3.3.63,6.72,2.49,9.45,3.93,5.81,14.81,4.06,21,5,6.72,1,14.79,1.11,20.53,5.24,5.33,3.83,9,9.42,11.46,15.42.46,1.11.88,2.24,1.27,3.38,2.14,6.31,3.59,12.9,6.68,18.81s8.25,11.2,14.81,12.35c9.11,1.58,17.47-5,23.92-11.66,5.9-6.07,11-12.75,16.82-18.8,5.19-5.38,15.57-10.53,16.92-18.35.95-5.49,1.25-11.23,3.35-16.45a27.34,27.34,0,0,1,9.36-12.41c1.78-1.29,3.79-2.42,4.95-4.29,1.38-2.24,1.27-5.08.77-7.66C486.58-28.54,485.24-35.55,484.07-42.7Z"/><path class="cls-6" d="M351.06-6.54a8.41,8.41,0,0,0,3.74,3.67,28,28,0,0,0,7.42,2C377.47,1.9,395.3,9.9,400.88,25.47c2.08,5.77,2.23,12.08,4.15,17.9s6.52,11.56,12.65,11.74c3.8.12,7.41-2,10-4.78s4.28-6.28,6-9.7L448.2,10.9c5.43-11.09,13.53-20.74,14.17-33.68a32.79,32.79,0,0,0-11.75-26.6c-8.39-6.84-17.12-6.69-27.27-6.49a25.9,25.9,0,0,0-11.62,2.74c-3.45,1.9-6.48,4.12-10.21,5.56a46.22,46.22,0,0,1-23.22,2.65c-5.12-.75-10.39-2.37-15.34-.84-4.64,1.42-8.1,5.46-10,9.92s-2.51,9.36-3.09,14.18C349.33-17.22,348.73-10.86,351.06-6.54Z"/><path class="cls-5" d="M371.4-38.38c-6.17.23-11,.9-13.81,6.81-2.45,5.23-3.68,11.71-.44,16.88,2.85,4.55,8.34,6.72,13.63,7.6s10.75.75,15.94,2.11c6.84,1.79,17.76,8.08,20.36,15.05,1.45,3.91,1.19,8.51,3.38,12,2.91,4.61,9.25,5.45,14.09,3.39s8.52-6.28,12-10.38C443.85,6.59,451.3-2.21,454.9-13s2.37-24.36-5.8-31.86c-6.72-6.17-16.54-7-25.22-5s-16.73,6.18-25.15,9.15S380.36-38.72,371.4-38.38Z"/><path class="cls-6" d="M318.81,18.43a3.78,3.78,0,0,0,2.65-1.21L327,12.59a9.77,9.77,0,0,0,3.65-10.16c-.63-3.09-2-2.86-4.45-1C323.88,3.18,312.78,17.79,318.81,18.43Z"/><path class="cls-6" d="M252.87,55c2.68,4,6.63,7.82,11.42,7.71,5.52-.13,9.51-5.44,11.28-10.67,3-8.77,2.29-18.8,7.16-26.67,1.53-2.46,3.57-4.65,4.52-7.38s.34-6.36-2.29-7.57c-2.08-1-4.49-.08-6.6.81L253.58,21.64c-6,2.52-14,4.48-19.15,8.63-5.64,4.55-1.14,8.22,4,10.71C246,44.64,247.61,49.13,252.87,55Z"/><path class="cls-6" d="M391,49.3c-.28-6.2-6.79-16.54-8.23-18.7-.46-.68-1.2-1.46-1.95-1.14s-.73,1.28-.63,2l1.15,8.83A40.67,40.67,0,0,0,383.4,50a7.65,7.65,0,0,0,1.79,2.89,3.45,3.45,0,0,0,3.14.92C390.39,53.23,391.1,51.54,391,49.3Z"/></g></g></g></svg>